<svg xmlns="http://www.w3.org/2000/svg" width="512" height="512" viewBox="0 0 512 512">
  <defs>
    <linearGradient id="g" x1="0" y1="0" x2="1" y2="1">
      <stop offset="0" stop-color="#22c55e"/>
      <stop offset="1" stop-color="#16a34a"/>
    </linearGradient>
  </defs>
  <rect x="64" y="80" width="384" height="288" rx="72" fill="#0b0f16"/>
  <rect x="96" y="112" width="320" height="224" rx="56" fill="url(#g)"/>
  <path d="M180 368l52-44h100c64 0 116-48 116-108S396 108 332 108H180c-64 0-116 48-116 108 0 44 24 82 60 100v52c0 10 12 16 20 8z" fill="#0b0f16" opacity="0.18"/>
  <circle cx="206" cy="224" r="18" fill="#0b0f16" opacity="0.9"/>
  <circle cx="256" cy="224" r="18" fill="#0b0f16" opacity="0.9"/>
  <circle cx="306" cy="224" r="18" fill="#0b0f16" opacity="0.9"/>
</svg>

